Coordinates
version=1
nRows=13
nColumns=36
inDegrees=yes

Units are S.I. units (second, meters, Newtons, ...)
Angles are in degrees.

endheader
time	pelvis_tilt	pelvis_list	pelvis_rotation	pelvis_tx	pelvis_ty	pelvis_tz	hip_flexion_r	hip_adduction_r	hip_rotation_r	knee_angle_r	ankle_angle_r	subtalar_angle_r	hip_flexion_l	hip_adduction_l	hip_rotation_l	knee_angle_l	ankle_angle_l	subtalar_angle_l	lumbar_extension	lumbar_bending	lumbar_rotation	arm_flex_r	arm_add_r	arm_rot_r	elbow_flex_r	pro_sup_r	wrist_flex_r	wrist_dev_r	arm_flex_l	arm_add_l	arm_rot_l	elbow_flex_l	pro_sup_l	wrist_flex_l	wrist_dev_l
      2.09000000	      0.40260327	     -5.86816351	      2.98400164	     -0.56549914	      0.91221008	     -0.19322404	     18.54878375	      9.35000817	     -7.37363289	    -25.78435699	      2.00662801	     -3.71155487	      3.87258732	     -6.39038725	      3.94160623	    -60.33201496	    -10.84014085	      3.09283320	     -5.75457355	      9.96048231	     -9.25457693	     -7.66808003	    -17.46683521	      6.60766883	     20.39672155	     86.51662706	      0.00000000	      0.00000000	     -0.52249546	    -15.31266950	     13.20831253	     29.17620246	     86.51662706	      0.00000000	      0.00000000
      2.10000000	      0.51099637	     -5.82577211	      3.34922734	     -0.55364866	      0.91400487	     -0.19268547	     17.27924138	      9.34177120	     -7.74644029	    -25.22743131	      2.74783573	     -3.16221800	      5.80700120	     -6.04721006	      4.53956218	    -62.13533260	     -9.38422657	      2.49516897	     -5.98552622	      9.97791137	     -9.13162651	     -7.42961265	    -17.53288238	      6.54497233	     21.05373596	     86.51662706	      0.00000000	      0.00000000	     -0.28949609	    -15.20701763	     14.13002208	     28.16651926	     86.51662706	      0.00000000	      0.00000000
      2.11000000	      0.61338536	     -5.68236010	      3.67506609	     -0.54179479	      0.91585208	     -0.19210990	     15.98229088	      9.26096368	     -8.05769433	    -24.60620526	      3.40722380	     -2.67038397	      7.68716185	     -5.55240644	      5.07386648	    -63.55647983	     -7.83970629	      2.07884782	     -6.20797022	      9.86720645	     -8.96107347	     -7.18803240	    -17.59206383	      6.52022596	     21.70210337	     86.51662706	      0.00000000	      0.00000000	     -0.07821694	    -15.12298908	     15.02556069	     27.17023119	     86.51662706	      0.00000000	      0.00000000
      2.12000000	      0.69795740	     -5.45192931	      3.94467996	     -0.52991786	      0.91770883	     -0.19149826	     14.67345065	      9.12198207	     -8.28177624	    -23.94213761	      4.00082617	     -2.24611640	      9.50541618	     -4.94266913	      5.50981812	    -64.59025938	     -6.29663235	      1.79214079	     -6.40997775	      9.64332431	     -8.73697962	     -6.93949689	    -17.64721900	      6.54066059	     22.33309050	     86.51662706	      0.00000000	      0.00000000	      0.08660724	    -15.05517459	     15.85621355	     26.21353056	     86.51662706	      0.00000000	      0.00000000
      2.13000000	      0.75550464	     -5.15310699	      4.14604654	     -0.51803490	      0.91952308	     -0.19083511	     13.36734079	      8.94140328	     -8.39570885	    -23.25205786	      4.54253278	     -1.89614544	     11.25868100	     -4.26301518	      5.81780048	    -65.24143880	     -4.81412050	      1.56846051	     -6.58363208	      9.32750475	     -8.45715985	     -6.67909197	    -17.70316704	      6.60918565	     22.94278471	     86.51662706	      0.00000000	      0.00000000	      0.18737539	    -14.99856365	     16.58993469	     25.31798438	     86.51662706	      0.00000000	      0.00000000
      2.14000000	      0.78190106	     -4.80735629	      4.27087146	     -0.50616435	      0.92123662	     -0.19008231	     12.07707409	      8.73678952	     -8.38290121	    -22.54724729	      5.04270413	     -1.62307675	     12.94638238	     -3.55906066	      5.97723731	    -65.52127654	     -3.42636325	      1.34216837	     -6.72530730	      8.94397408	     -8.12209126	     -6.40136847	    -17.76626460	      6.72439812	     23.53157857	     86.51662706	      0.00000000	      0.00000000	      0.21462658	    -14.94950455	     17.20395249	     24.49808838	     86.51662706	      0.00000000	      0.00000000
      2.15000000	      0.77803066	     -4.43610056	      4.31414976	     -0.49430809	      0.92280250	     -0.18921702	     10.81257179	      8.52537141	     -8.23656367	    -21.83418158	      5.50875218	     -1.42420770	     14.56743049	     -2.87059077	      5.98034280	    -65.44505373	     -2.15068478	      1.06215181	     -6.83553309	      8.51747059	     -7.73388011	     -6.10127616	    -17.84353099	      6.88098154	     24.10326305	     86.51662706	      0.00000000	      0.00000000	      0.16682528	    -14.90595666	     17.68604851	     23.76000582	     86.51662706	      0.00000000	      0.00000000
      2.16000000	      0.74830461	     -4.05859278	      4.27470164	     -0.48245631	      0.92419520	     -0.18825099	      9.57840467	      8.32240247	     -7.96207951	    -21.11585195	      5.94677747	     -1.29023732	     16.11787816	     -2.22742351	      5.83397048	    -65.02989634	     -0.99501850	      0.69998527	     -6.91862618	      8.07162650	     -7.29571166	     -5.77525308	    -17.94157793	      7.07041663	     24.66392958	     86.51662706	      0.00000000	      0.00000000	      0.04928504	    -14.86698251	     18.03445101	     23.10169322	     86.51662706	      0.00000000	      0.00000000
      2.17000000	      0.69941831	     -3.69119433	      4.15634038	     -0.47060330	      0.92539673	     -0.18720917	      8.37217441	      8.13931981	     -7.57779173	    -20.39269782	      6.36322508	     -1.20435259	     17.59056696	     -1.64799791	      5.55864206	    -64.29248052	      0.03653874	      0.25127102	     -6.98215510	      7.62774716	     -6.81180765	     -5.42213575	    -18.06561278	      7.28191171	     25.22084259	     86.51662706	      0.00000000	      0.00000000	     -0.12745905	    -14.83184969	     18.25654400	     22.51429452	     86.51662706	      0.00000000	      0.00000000
      2.18000000	      0.63984461	     -3.34680974	      3.96848684	     -0.45875708	      0.92638411	     -0.18611121	      7.18450355	      7.98247339	     -7.11392446	    -19.66294284	      6.76571667	     -1.14224618	     18.97639932	     -1.14078068	      5.18523664	    -63.24751027	      0.94033549	     -0.26916456	     -7.03610411	      7.20371290	     -6.28765855	     -5.04359524	    -18.21871403	      7.50345330	     25.78139258	     86.51662706	      0.00000000	      0.00000000	     -0.34960578	    -14.79925220	     18.36675066	     21.98441610	     86.51662706	      0.00000000	      0.00000000
      2.19000000	      0.57943562	     -3.03423493	      3.72514838	     -0.44693127	      0.92713671	     -0.18497540	      6.00091788	      7.85297072	     -6.60969954	    -18.92289033	      7.16271125	     -1.07352000	     20.26591859	     -0.70716065	      4.75037052	    -61.90783946	      1.71161525	     -0.83590710	     -7.09165143	      6.81308145	     -5.73024786	     -4.64396361	    -18.40150907	      7.72287663	     26.35219485	     86.51662706	      0.00000000	      0.00000000	     -0.60219991	    -14.76704665	     18.38401131	     21.49675114	     86.51662706	      0.00000000	      0.00000000
      2.20000000	      0.52842439	     -2.75822474	      3.44257481	     -0.43512695	      0.92764908	     -0.18382046	      4.80503216	      7.74778244	     -6.10893898	    -18.16785071	      7.56223025	     -0.96465150	     21.45025394	     -0.34382452	      4.29129182	    -60.28585048	      2.34445427	     -1.42243820	     -7.15973283	      6.46463567	     -5.14808550	     -4.22951451	    -18.61229296	      7.92886168	     26.93836960	     86.51662706	      0.00000000	      0.00000000	     -0.87122228	    -14.73262071	     18.32925745	     21.03652004	     86.51662706	      0.00000000	      0.00000000
      2.21000000	      0.49587640	     -2.52036632	      3.13689349	     -0.42332789	      0.92792973	     -0.18265712	      3.58204659	      7.66180454	     -5.65462924	    -17.39391805	      7.97027062	     -0.78327842	     22.52136305	     -0.04389293	      3.84107878	    -58.39502605	      2.83298804	     -2.00877496	     -7.24963746	      6.16258001	     -4.55100030	     -3.80740246	    -18.84747150	      8.11176718	     27.54302779	     86.51662706	      0.00000000	      0.00000000	     -1.14537609	    -14.69361832	     18.22319101	     20.59131003	     86.51662706	      0.00000000	      0.00000000
